<?xml version="1.0" encoding="UTF-8" standalone="no"?>
<!-- Created with Inkscape (http://www.inkscape.org/) -->

<svg
   xmlns:dc="http://purl.org/dc/elements/1.1/"
   xmlns:cc="http://creativecommons.org/ns#"
   xmlns:rdf="http://www.w3.org/1999/02/22-rdf-syntax-ns#"
   xmlns:svg="http://www.w3.org/2000/svg"
   xmlns="http://www.w3.org/2000/svg"
   xmlns:sodipodi="http://sodipodi.sourceforge.net/DTD/sodipodi-0.dtd"
   xmlns:inkscape="http://www.inkscape.org/namespaces/inkscape"
   width="140.50684mm"
   height="130.32654mm"
   viewBox="0 0 140.50684 130.32654"
   version="1.1"
   id="svg3814"
   inkscape:version="0.92.2 5c3e80d, 2017-08-06"
   sodipodi:docname="squido.svg">
  <defs
     id="defs3808" />
  <sodipodi:namedview
     id="base"
     pagecolor="#ffffff"
     bordercolor="#666666"
     borderopacity="1.0"
     inkscape:pageopacity="0.0"
     inkscape:pageshadow="2"
     inkscape:zoom="2.8"
     inkscape:cx="414.52497"
     inkscape:cy="187.3032"
     inkscape:document-units="mm"
     inkscape:current-layer="layer1"
     showgrid="false"
     inkscape:window-width="3840"
     inkscape:window-height="2032"
     inkscape:window-x="0"
     inkscape:window-y="54"
     inkscape:window-maximized="1"
     fit-margin-top="0"
     fit-margin-left="0"
     fit-margin-right="0"
     fit-margin-bottom="0" />
  <metadata
     id="metadata3811">
    <rdf:RDF>
      <cc:Work
         rdf:about="">
        <dc:format>image/svg+xml</dc:format>
        <dc:type
           rdf:resource="http://purl.org/dc/dcmitype/StillImage" />
        <dc:title></dc:title>
      </cc:Work>
    </rdf:RDF>
  </metadata>
  <g
     inkscape:label="Layer 1"
     inkscape:groupmode="layer"
     id="layer1"
     transform="translate(-31.044194,-57.211707)">
    <path
       style="fill:#000000;fill-opacity:1;stroke-width:0.35277778"
       d="m 77.045838,187.33284 c -2.557,-0.39224 -4.2125,-1.25252 -4.8747,-2.53307 -0.6748,-1.3049 -1.5158,-2.94445 -0.5063,-6.48711 1.04,-3.64991 1.9479,-2.32943 5.331,-14.65573 0.7531,-2.7441 2.9259,-13.07442 3.0534,-15.51522 -1.5119,1.46806 -2.4809,3.86832 -5.0472,6.7016 -3.1356,3.4618 -4.9094,4.8123 -7.7411,6.95083 -6.9354,5.23785 -6.2653,4.83734 -13.0527,7.8007 -2.2766,0.99394 -3.4092,1.26614 -5.8581,1.40792 -3.5499,0.20552 -4.558,-0.15023 -7.0183,-2.47679 -1.8297,-1.73027 -2.2454,-2.50476 -2.7959,-5.20914 -0.3597,-2.97062 0.1941,-5.50784 2.2064,-7.9331 4.0749,-6.85473 12.0201,-9.11659 17.8422,-14.50947 1.6205,-1.77342 4.2651,-3.21299 5.5266,-4.67766 -0.3881,0.11662 -2.1154,0.55488 -3.3765,0.88429 -1.2612,0.32941 -3.5631,0.96399 -5.1153,1.41017 -3.6623,1.05272 -9.1219,1.91436 -12.1298,1.91436 -2.5208,0 -5.8412,-0.79526 -6.7716,-1.62184 -3.0405,-1.53645 -4.8236,-2.8851 -5.5689,-6.59923 -0.199,-1.06536 -0.1191,-1.97014 0.2773,-3.1393 0.7234,-2.53634 2.2867,-3.59343 3.9671,-4.82142 2.1031,-1.53695 5.1689,-2.52754 7.2574,-2.8978 4.8693,-0.86328 6.0249,-1.07889 7.238,-1.19343 -0.8626,-0.35144 -1.9219,-2.09498 -2.3544,-3.40548 -0.5584,-1.69167 -0.7545,-3.91915 -0.1748,-5.34146 0.7457,-1.82956 3.2911,-3.00355 6.143,-3.65984 2.8139,-0.64754 2.9499,-0.85179 8.8195,-0.49669 4.5955,0.27801 6.4919,0.26037 8.1138,-0.0755 l 2.1167,-0.4383 0.2537,-2.29306 c 0.1395,-1.26118 0.4045,-4.436177 0.5889,-7.055547 0.5566,-7.90877 1.6428,-13.58608 2.7118,-15.99179 5.9617,-13.41595 14.6234,-21.58425 29.047402,-23.73311 4.8533,-0.68272 13.8304,-0.55018 17.0084,0.38245 5.8419,1.71439 11.9569,5.52392 13.9564,8.59689 7.291,8.40399 6.0027,16.99671 4.0503,24.57194 -1.3404,5.20088 -1.9943,7.00024 -5.3681,16.976347 1.0018,0.82253 5.0135,-0.49437 7.6012,-2.69277 1.5967,-1.40428 3.5501,-1.19479 4.8062,-0.12934 1.6505,1.39993 2.3288,4.37031 1.7297,8.02641 -0.2674,1.632 -1.1635,2.87645 -2.1148,4.50541 -1.5736,2.69434 -1.6354,2.17305 -2.4896,3.3026 0.309,-0.1186 2.26,-0.62803 2.7756,-0.74207 0.5155,-0.11405 1.8536,-0.51123 2.9735,-0.88262 1.5314,-0.50785 2.5372,-0.61938 4.057,-0.44985 2.2743,0.25368 3.7777,2.01002 4.2121,2.87323 0.4118,0.81817 0.866,1.82545 0.7428,4.05737 -0.1686,3.05328 -1.5019,6.28763 -3.3172,8.04715 -0.6625,0.64206 -1.2045,1.2553 -1.2045,1.36276 -1e-4,0.10746 1.7065,0.19537 3.7923,0.19537 4.7192,0.17626 10.641,1.4936 12.5855,5.34291 1.077,2.13193 0.5167,4.61955 -0.2231,6.2989 -3.8807,8.34677 -8.2979,10.26715 -16.3002,12.98705 -4.1185,1.39984 -12.931,-0.0195 -16.4898,-1.64068 -5.2923,-2.23645 -7.1555,-4.04984 -10.8813,-8.39758 0.8627,3.49121 3.3837,5.74592 5.2127,8.51635 0.3147,0.48507 1.7312,2.32641 3.1478,4.09186 1.5008,0.66604 2.9115,4.02877 3.6433,6.35974 0.4833,1.53953 0.851,3.9341 0.4262,4.82206 -1.9072,4.61888 -2.6455,6.24943 -7.2714,8.31235 -2.0248,0.88928 -5.248,1.00723 -6.7801,0.24811 -0.5634,-0.27915 -1.4212,-0.65743 -1.9063,-0.84063 -4.4223,-2.43677 -8.7206,-5.63626 -11.7415,-9.97076 -4.3025,-5.35664 -7.8416,-12.49472 -8.8636,-18.4949 -1.1117,3.44569 -1.8576,8.5405 -2.8317,12.82607 -1.655002,7.28189 -4.479802,12.42081 -10.100002,17.27974 -2.2419,2.39156 -6.3123,3.91098 -9.5021,4.13949 -0.8731,0.0521 -2.423,-0.0335 -3.4443,-0.19016 z m 10.0337,-6.10824 c 4.1056,-3.28253 6.3517,-7.89513 8.4734,-12.96501 1.6126,-3.8536 3.065,-10.54304 3.4977,-14.09583 0.2048,-1.73211 1.630602,-8.87117 2.043202,-10.23056 0.5259,-1.0703 1.028,-3.63684 3.0469,-5.55355 -0.3508,7.35241 1.6505,14.45055 3.8726,20.023 5.0973,10.13603 7.3702,16.08488 16.2213,19.43118 3.3666,1.28255 7.6985,0.46934 8.9737,-0.92495 2.0288,-2.2184 3.0473,-2.91888 2.78,-5.41186 -0.4419,-4.12098 -2.4459,-7.04543 -6.5109,-11.73951 -1.7551,-2.0266 -4.5668,-6.02575 -5.0491,-7.18125 -1.1436,-3.40137 -3.1266,-5.52158 -1.5066,-13.3622 2.2571,4.89164 5.8611,7.93051 8.6145,10.79586 4.1145,4.04507 7.3544,5.65682 11.4735,6.60534 4.1191,0.94852 8.2249,0.74604 12.7311,-0.972 4.5363,-1.72951 11.4794,-6.22013 11.6531,-10.81797 0,-2.00702 -1.1659,-2.86366 -2.4071,-3.6015 -2.9761,-1.76911 -7.4766,-1.08984 -10.3435,-0.94433 -4.2551,0.22568 -6.1619,-0.46395 -9.167,-1.13432 -2.9107,-0.64931 -6.1199,-1.67227 -8.504,-2.77909 -2.4654,-1.14453 -6.2844,-4.18388 -8.1983,-7.50974 -2.0713,-3.70947 -2.9483,-8.535 -1.4204,-13.02145 3.6813,-9.57068 8.0981,-21.137397 9.7732,-29.404437 0.8372,-4.68122 0.728,-7.07474 -0.1954,-10.42567 -1.8264,-7.01716 -9.6212,-12.31842 -16.3014,-14.18607 -7.9177,-2.4711 -20.0146,-0.0406 -25.956702,2.96463 -10.0681,6.30711 -15.6198,18.14786 -15.9471,28.12079 -0.6485,5.37695 -1.6936,9.339757 -2.6208,14.163817 -0.4336,2.28063 -2.1554,5.66704 -4.077,7.9375 -2.0689,2.44462 -4.761,4.47669 -7.703,5.74224 -3.9117,1.68275 -8.2812,2.00969 -12.5867,2.18534 -4.9852,0.2065 -11.6399,1.87351 -15.6143,4.80206 -1.7375,0.88441 -1.8483,4.42377 -0.5056,6.08539 1.9868,2.45893 4.7468,3.27992 5.4027,3.33358 3.179292,0.74135 13.157239,-0.39662 19.4514,-2.10818 4.7749,-1.13678 8.613,-3.09166 12.9365,-5.42283 -0.4594,1.0479 -1.4039,2.33449 -4.8046,5.77601 -7.7728,8.57531 -23.264144,19.29978 -24.71287,22.15728 -1.297191,2.55861 -1.84643,4.60368 -1.15683,6.14015 0.7157,1.59475 1.382174,2.74141 2.882774,3.11534 1.446408,0.66397 5.243327,1.05572 9.282826,-0.26324 2.8205,-0.89958 7.6669,-4.33148 11.0697,-7.09319 3.5361,-2.86995 8.2901,-7.92437 9.5803,-9.74078 0.2911,-0.40972 1.3663,-2.15597 2.3894,-3.88056 1.0658,-1.82868 2.3256,-3.79754 3.2718,-5.54282 0.9927,-1.8352 3.4228,-4.0124 4.9059,-5.01555 -0.2961,4.45509 -2.1829,8.22544 -3.3431,13.13901 -2.0645,8.7436 -2.3557,16.50755 -6.4685,24.62265 -0.8234,1.584 -3.043,5.55869 -1.9862,8.14611 0.7691,1.88326 1.4727,3.19657 5.1832,3.22165 2.8079,0.30725 5.6934,-1.01313 7.5758,-3.18053 z m 25.160602,-74.87224 c -1.4136,-0.98312 -4.1107,-3.68307 -4.8075,-7.978787 -0.6967,-4.29572 0.8423,-9.07985 1.3278,-10.38567 0.8277,-3.48795 2.3977,-4.79422 3.212,-5.64637 1.4635,-1.53177 3.7248,-2.89718 6.0885,-1.82344 1.5572,0.81279 2.2064,2.38666 2.9987,3.56467 4.072,6.03355 3.2304,17.641277 -1.5602,21.518167 -2.6589,2.17225 -4.9832,2.33434 -7.2593,0.75143 z m 5.2893,-3.99777 c 0.8349,-0.27022 2.3143,-2.15021 2.9139,-3.318367 1.0262,-1.99942 1.0076,-5.17561 0.604,-7.72763 -0.235,-1.48601 -0.9287,-3.11241 -1.723,-4.1716 -0.096,0.46897 -0.4,1.41848 -0.888,2.07705 -0.8659,1.16851 -2.9469,3.3922 -5.209,3.10957 -1.4428,-0.18026 -2.1196,-1.41201 -2.3433,-2.11599 -0.3758,0.798 -0.7096,2.41402 -0.6962,3.65379 0.02,1.81176 0.3113,3.70131 1.1328,5.31624 0.6281,1.234787 1.5172,2.513747 2.7753,3.093687 1.0397,0.47924 1.8896,0.61023 3.4335,0.0833 z m -26.079502,-1.91478 c -2.5566,-2.153777 -3.499,-4.734607 -2.8883,-9.603777 0.4903,-3.90981 2.0756,-6.57592 4.4171,-8.93148 1.6007,-1.6103 3.8177,-2.99998 6.0875,-3.0561 1.743902,-0.0431 3.150102,0.14288 4.787302,2.11392 1.6155,1.94505 2.0861,3.26898 2.078,5.84624 -0.01,3.11048 -0.2774,4.5464 -1.3757,7.38293 -1.1846,3.05949 -2.7814,5.73302 -5.401302,7.189207 -3.477,1.30274 -5.7259,0.72602 -7.7046,-0.94094 z m 6.2615,-2.014257 c 3.003302,-1.47197 4.546302,-5.27282 5.270702,-8.53805 0.5304,-2.39021 0.4013,-6.42938 -0.8529,-7.29533 0.073,2.35496 -0.488,3.65143 -1.5633,5.04578 -1.131402,1.46713 -2.866402,2.84654 -4.716802,2.94025 -0.9136,0.0463 -2.0017,-0.64731 -2.4636,-1.20901 -0.512,0.55143 -0.9984,1.7773 -1.2458,2.96426 -0.4551,2.1834 0.025,4.38851 1.5078,5.65841 1.0346,0.88631 2.8406,1.03326 4.0639,0.43369 z m 50.475002,37.331817 c 1.9831,-0.49061 3.6182,-1.58661 4.8669,-2.98494 3.2115,-3.59648 4.2644,-8.47132 2.3139,-10.18805 -1.3495,-1.18779 -2.917,-1.11662 -7.8976,0.35854 -2.2928,0.6791 -4.4699,1.23473 -4.8381,1.23473 -0.3681,0 -1.364,0.25913 -2.213,0.57584 -1.7721,0.66108 -9.1278,0.67164 -9.8024,0.12766 0.1127,2.42226 2.2936,5.36784 5.7223,7.81807 3.5558,1.99807 10.1193,3.48578 11.848,3.05815 z m -8.5621,-14.90249 c 1.5469,-0.69788 4.0505,-3.22334 5.1512,-4.99279 1.6916,-2.7195 2.539,-6.5481 1.0815,-8.17166 -0.7022,-0.70213 -1.0565,-0.49421 -3.1361,0.62876 -1.1452,0.61838 -2.479,1.39706 -2.9641,1.73039 -1.8297,1.25719 -5.6152,1.92808 -6.6133,1.82743 -1.3338,2.86337 -2.3635,6.99398 -2.0974,9.14617 3.0445,0.7383 6.56,0.52294 8.5782,-0.1683 z m -80.775702,-2.06986 c 1.6855,-0.26355 3.5021,-0.39184 5.0063,-1.06343 1.8816,-1.21377 3.8515,-2.47131 5.3421,-3.99851 1.1632,-1.21162 2.3016,-2.40936 2.8943,-4.12448 -0.6803,0.0892 -1.2761,-0.0158 -2.5373,0.12278 -1.2612,0.13855 -4.6929,0.11005 -7.626,-0.0633 -3.5496,-0.20984 -9.6283,-0.30083 -11.5063,1.97786 -1.3102,1.58977 -0.8687,3.19189 -0.5021,4.61144 0.3245,1.25659 1.9051,2.35401 3.2598,3.11167 1.9751,0.11464 3.7926,-0.28056 5.6692,-0.57399 z"
       id="path3797"
       inkscape:connector-curvature="0"
       sodipodi:nodetypes="cssscssscscccccsscccascasssscccscscsccsssccccsssccscsccccaccscccscccczcccccsscccczscacasccccccccaaccscccccscccccccscaccszsscccscsacsscaaacasacscscaaaccacsaassccscccscsccccccaccccssscacccc" />
  </g>
</svg>
